<svg width="23" height="23" viewBox="0 0 23 23" fill="none" xmlns="http://www.w3.org/2000/svg">
<g clip-path="url(#clip0_14_10)">
<path fill-rule="evenodd" clip-rule="evenodd" d="M0.677765 10.251C0.677765 4.96382 4.96386 0.677734 10.251 0.677734C15.5382 0.677734 19.8243 4.96382 19.8243 10.251C19.8243 15.5382 15.5382 19.8243 10.251 19.8243C4.96385 19.8243 0.677765 15.5382 0.677765 10.251ZM10.251 1.87773C5.6266 1.87773 1.87776 5.62657 1.87776 10.251C1.87776 14.8754 5.6266 18.6243 10.251 18.6243C14.8754 18.6243 18.6243 14.8754 18.6243 10.251C18.6243 5.62657 14.8754 1.87773 10.251 1.87773Z" fill="#333333"/>
<path fill-rule="evenodd" clip-rule="evenodd" d="M16.7539 16.0156C17.0016 15.7954 17.3808 15.8177 17.601 16.0653L22.1703 21.2043C22.3905 21.4519 22.3683 21.8312 22.1206 22.0514C21.873 22.2716 21.4938 22.2493 21.2736 22.0017L16.7042 16.8627C16.484 16.6151 16.5063 16.2358 16.7539 16.0156Z" fill="#333333"/>
</g>
<defs>
<clipPath id="clip0_14_10">
<rect width="23" height="23" fill="white"/>
</clipPath>
</defs>
</svg>
