<svg width="26" height="24" viewBox="0 0 26 24" fill="none" xmlns="http://www.w3.org/2000/svg">
<mask id="path-1-inside-1_15_62" fill="white">
<path fill-rule="evenodd" clip-rule="evenodd" d="M0 7C0 8.48725 0.463815 9.86617 1.25469 11H1L12.7551 24L25 11H24.7453C25.5362 9.86617 26 8.48725 26 7C26 3.13401 22.866 0 19 0C16.4537 0 14.2249 1.35958 13 3.39242C11.7751 1.35958 9.54633 0 7 0C3.13401 0 0 3.13401 0 7Z"/>
</mask>
<path fill-rule="evenodd" clip-rule="evenodd" d="M0 7C0 8.48725 0.463815 9.86617 1.25469 11H1L12.7551 24L25 11H24.7453C25.5362 9.86617 26 8.48725 26 7C26 3.13401 22.866 0 19 0C16.4537 0 14.2249 1.35958 13 3.39242C11.7751 1.35958 9.54633 0 7 0C3.13401 0 0 3.13401 0 7Z" fill="white"/>
<path d="M1.25469 11V12H3.17145L2.07487 10.4279L1.25469 11ZM1 11V10H-1.25244L0.258271 11.6707L1 11ZM12.7551 24L12.0134 24.6707L12.7401 25.4744L13.483 24.6856L12.7551 24ZM25 11L25.7279 11.6856L27.3157 10H25V11ZM24.7453 11L23.9251 10.4279L22.8286 12H24.7453V11ZM13 3.39242L12.1435 3.90852L13 5.33001L13.8565 3.90852L13 3.39242ZM2.07487 10.4279C1.39726 9.45644 1 8.27611 1 7H-1C-1 8.69838 -0.469631 10.2759 0.434504 11.5721L2.07487 10.4279ZM1 12H1.25469V10H1V12ZM13.4968 23.3293L1.74173 10.3293L0.258271 11.6707L12.0134 24.6707L13.4968 23.3293ZM24.2721 10.3144L12.0272 23.3144L13.483 24.6856L25.7279 11.6856L24.2721 10.3144ZM24.7453 12H25V10H24.7453V12ZM25 7C25 8.27611 24.6027 9.45644 23.9251 10.4279L25.5655 11.5721C26.4696 10.2759 27 8.69838 27 7H25ZM19 1C22.3137 1 25 3.68629 25 7H27C27 2.58172 23.4183 -1 19 -1V1ZM13.8565 3.90852C14.908 2.16348 16.8186 1 19 1V-1C16.0887 -1 13.5418 0.555685 12.1435 2.87631L13.8565 3.90852ZM7 1C9.18138 1 11.092 2.16348 12.1435 3.90852L13.8565 2.87631C12.4582 0.555685 9.91127 -1 7 -1V1ZM1 7C1 3.68629 3.68629 1 7 1V-1C2.58172 -1 -1 2.58172 -1 7H1Z" fill="black" mask="url(#path-1-inside-1_15_62)"/>
</svg>
